<svg width="75" height="60" viewBox="0 0 75 60" fill="none" xmlns="http://www.w3.org/2000/svg">
<rect x="8" width="60" height="60" rx="5" fill="#F6530F"/>
<path d="M35.9414 33.1343C35.8594 33.7905 35.6782 34.3682 35.3979 34.8672C35.1177 35.3662 34.7622 35.7866 34.3315 36.1284C33.9009 36.4702 33.4053 36.73 32.8447 36.9077C32.291 37.0786 31.6929 37.1641 31.0503 37.1641C30.2505 37.1641 29.5396 37.0137 28.9175 36.7129C28.2954 36.4121 27.7725 36.0054 27.3486 35.4927C26.918 34.98 26.5898 34.3853 26.3643 33.7085C26.1387 33.0317 26.0225 32.314 26.0156 31.5552V30.5195C26.0225 29.7471 26.1421 29.0225 26.3745 28.3457C26.6069 27.6621 26.9453 27.064 27.3896 26.5513C27.8271 26.0386 28.3604 25.6353 28.9893 25.3413C29.625 25.0405 30.3496 24.8901 31.1631 24.8901C31.8057 24.8901 32.4004 24.9824 32.9473 25.167C33.501 25.3516 33.9863 25.6182 34.4033 25.9668C34.8135 26.3154 35.1519 26.7427 35.4185 27.2485C35.6851 27.7544 35.8594 28.3286 35.9414 28.9712H34.0444C33.9761 28.5747 33.8701 28.2227 33.7266 27.915C33.583 27.6074 33.3984 27.3477 33.1729 27.1357C32.9336 26.9102 32.6465 26.7393 32.3115 26.623C31.9834 26.5068 31.6006 26.4487 31.1631 26.4487C30.582 26.4487 30.0864 26.5649 29.6763 26.7974C29.2661 27.0229 28.9312 27.3237 28.6714 27.6997C28.4116 28.0825 28.2202 28.52 28.0972 29.0122C27.981 29.4976 27.9194 29.9966 27.9126 30.5093V31.5552C27.9194 32.0542 27.9775 32.5464 28.0869 33.0317C28.1963 33.5171 28.374 33.9512 28.6201 34.334C28.8662 34.7168 29.1875 35.0278 29.584 35.2671C29.9873 35.4995 30.4761 35.6157 31.0503 35.6157C31.5356 35.6226 31.9595 35.5645 32.3218 35.4414C32.6841 35.3115 32.9883 35.1235 33.2344 34.8774C33.4395 34.6724 33.6069 34.4263 33.7368 34.1392C33.8735 33.8452 33.9761 33.5103 34.0444 33.1343H35.9414ZM44.7495 32.7959H42.0425L41.2222 37H39.7559L40.5762 32.7959H38.1255V31.3911H40.8428L41.5503 27.7612H38.9048V26.3359H41.8271L42.668 22.0703H44.1343L43.2935 26.3359H46.0005L46.8413 22.0703H48.3076L47.4668 26.3359H49.5688V27.7612H47.1899L46.4824 31.3911H48.7998V32.7959H46.2158L45.3955 37H43.9292L44.7495 32.7959ZM42.3091 31.3911H45.0161L45.7236 27.7612H43.0166L42.3091 31.3911Z" fill="white"/>
</svg>
