<svg width="60" height="60" viewBox="0 0 60 60" fill="none" xmlns="http://www.w3.org/2000/svg">
<rect width="60" height="60" rx="5" fill="#F6530F"/>
<path d="M35.7476 33.1343C35.6655 33.7905 35.4844 34.3682 35.2041 34.8672C34.9238 35.3662 34.5684 35.7866 34.1377 36.1284C33.707 36.4702 33.2114 36.73 32.6509 36.9077C32.0972 37.0786 31.499 37.1641 30.8564 37.1641C30.0566 37.1641 29.3457 37.0137 28.7236 36.7129C28.1016 36.4121 27.5786 36.0054 27.1548 35.4927C26.7241 34.98 26.396 34.3853 26.1704 33.7085C25.9448 33.0317 25.8286 32.314 25.8218 31.5552V30.5195C25.8286 29.7471 25.9482 29.0225 26.1807 28.3457C26.4131 27.6621 26.7515 27.064 27.1958 26.5513C27.6333 26.0386 28.1665 25.6353 28.7954 25.3413C29.4312 25.0405 30.1558 24.8901 30.9692 24.8901C31.6118 24.8901 32.2065 24.9824 32.7534 25.167C33.3071 25.3516 33.7925 25.6182 34.2095 25.9668C34.6196 26.3154 34.958 26.7427 35.2246 27.2485C35.4912 27.7544 35.6655 28.3286 35.7476 28.9712H33.8506C33.7822 28.5747 33.6763 28.2227 33.5327 27.915C33.3892 27.6074 33.2046 27.3477 32.979 27.1357C32.7397 26.9102 32.4526 26.7393 32.1177 26.623C31.7896 26.5068 31.4067 26.4487 30.9692 26.4487C30.3882 26.4487 29.8926 26.5649 29.4824 26.7974C29.0723 27.0229 28.7373 27.3237 28.4775 27.6997C28.2178 28.0825 28.0264 28.52 27.9033 29.0122C27.7871 29.4976 27.7256 29.9966 27.7188 30.5093V31.5552C27.7256 32.0542 27.7837 32.5464 27.8931 33.0317C28.0024 33.5171 28.1802 33.9512 28.4263 34.334C28.6724 34.7168 28.9937 35.0278 29.3901 35.2671C29.7935 35.4995 30.2822 35.6157 30.8564 35.6157C31.3418 35.6226 31.7656 35.5645 32.1279 35.4414C32.4902 35.3115 32.7944 35.1235 33.0405 34.8774C33.2456 34.6724 33.4131 34.4263 33.543 34.1392C33.6797 33.8452 33.7822 33.5103 33.8506 33.1343H35.7476Z" fill="white"/>
</svg>
