<svg width="105" height="184" viewBox="0 0 105 184" fill="none" xmlns="http://www.w3.org/2000/svg">
<path fill-rule="evenodd" clip-rule="evenodd" d="M12.2056 1.97705C7.06056 4.54605 2.67156 9.62405 1.11956 14.8011C0.308558 17.5101 -0.0154372 39.969 0.000562812 92.495C0.0215628 164.618 0.0705632 166.486 2.05556 170.861C4.71656 176.727 6.50456 178.601 12.1956 181.487C16.9076 183.877 16.9456 183.879 52.1956 183.857C91.1026 183.833 91.9706 183.709 98.3216 177.293C104.872 170.675 104.479 176.121 104.479 91.8791V15.379L101.674 10.607C100.131 7.98205 97.0136 4.60705 94.7476 3.10705L90.6276 0.379049L53.5536 0.111047C17.4286 -0.149953 16.3686 -0.102951 12.2056 1.97705ZM29.9766 4.88305C26.8056 10.8081 15.4736 18.321 6.72856 20.296C4.41756 20.818 3.97856 20.588 3.97856 18.858C3.97856 15.551 7.67856 9.22905 10.9976 6.86605C15.0816 3.95705 18.3346 3.06805 25.2636 2.96505C30.7536 2.88305 30.9946 2.98105 29.9766 4.88305ZM72.3636 7.27405C76.6086 14.517 83.6536 19.395 94.9786 22.934L100.479 24.6521L100.751 43.381C101.008 60.991 100.918 62.0641 99.2506 61.3311C98.2766 60.9021 94.5226 59.517 90.9096 58.252C69.4556 50.742 33.2976 50.883 12.9786 58.556C9.40356 59.906 5.69156 61.258 4.72856 61.561C3.10456 62.072 2.97856 60.7721 2.97856 43.5671V25.021L8.69856 23.358C20.0256 20.065 27.3266 15.209 32.1576 7.75205L35.3156 2.87905H52.5516H69.7886L72.3636 7.27405ZM92.9206 6.33905C96.8286 9.04705 100.979 15.724 100.979 19.303C100.979 21.555 98.0506 20.965 89.4786 16.984C82.4216 13.707 78.1996 10.3201 75.5886 5.84105L73.6996 2.59805L81.3166 3.08705C87.5226 3.48505 89.6726 4.08805 92.9206 6.33905ZM68.0046 56.9141C81.1106 58.5151 99.5326 63.8731 98.7816 65.8661C98.6146 66.3081 94.7636 69.416 90.2226 72.774L81.9676 78.8791H52.3516H22.7366L14.3576 72.673C9.74856 69.26 5.97856 66.1661 5.97856 65.7961C5.97856 64.6851 15.0196 61.197 22.4786 59.43C36.9666 55.999 53.1756 55.1031 68.0046 56.9141ZM13.4576 76.4611L20.9786 82.121V92.5001V102.879H11.9786H2.97856V86.272C2.97856 72.024 3.18856 69.746 4.45756 70.233C5.27156 70.545 9.32156 73.3481 13.4576 76.4611ZM100.979 86.3791V102.879H92.4786H83.9786V92.3751V81.871L92.0656 75.8751C96.5126 72.5771 100.338 69.8791 100.566 69.8791C100.793 69.8791 100.979 77.3041 100.979 86.3791ZM79.9786 105.379V127.879H52.4786H24.9786V105.379V82.8791H52.4786H79.9786V105.379ZM20.7626 117.533L20.4786 128.186L12.6316 131.533C8.31656 133.373 4.37856 134.879 3.88156 134.879C2.85256 134.879 2.62456 108.566 3.64556 107.546C4.01156 107.179 8.07756 106.879 12.6786 106.879H21.0466L20.7626 117.533ZM100.979 120.879C100.979 128.579 100.641 134.847 100.229 134.808C99.8166 134.769 96.1036 133.294 91.9786 131.528L84.4786 128.319L84.1946 117.599L83.9106 106.879H92.4446H100.979V120.879ZM88.6726 133.956C98.8966 138.018 98.7946 137.919 94.8786 139.914C84.8496 145.022 59.7126 148.322 41.8546 146.875C26.6906 145.646 5.37756 140.195 7.43056 138.07C7.79756 137.69 11.3336 135.962 15.2886 134.229L22.4786 131.08L51.7026 130.979L80.9266 130.879L88.6726 133.956ZM12.6996 144.839C39.3496 153.768 72.4956 152.81 99.2596 142.338C100.92 141.689 101.021 142.514 100.76 154.51L100.479 167.379L92.0086 167.879L83.5386 168.379L79.1716 174.648L74.8046 180.916L52.1766 180.648L29.5486 180.379L25.1896 174.129L20.8306 167.879H12.5356H4.24056L3.62056 164.129C2.91256 159.844 2.75156 141.879 3.42156 141.879C3.66556 141.879 7.84056 143.211 12.6996 144.839ZM21.7286 175.377C22.9656 177.288 23.9786 179.328 23.9786 179.91C23.9786 182.835 8.95156 176.857 7.62756 173.406C7.14056 172.137 8.09256 171.881 13.2596 171.891C19.2546 171.903 19.5596 172.029 21.7286 175.377ZM95.9026 174.474C94.5696 175.901 92.3536 177.648 90.9786 178.356C88.1356 179.819 79.9786 181.369 79.9786 180.445C79.9786 180.11 81.1636 178.046 82.6116 175.858C85.2346 171.893 85.2676 171.879 91.7856 171.879H98.3276L95.9026 174.474Z" fill="black"/>
</svg>
