<svg width="60" height="60" viewBox="0 0 60 60" fill="none" xmlns="http://www.w3.org/2000/svg">
<rect width="60" height="60" rx="5" fill="#F6530F"/>
<path d="M25.6729 25.0542H27.6211L27.6006 33.1548C27.5869 33.8042 27.4639 34.3784 27.2314 34.8774C26.999 35.3765 26.6914 35.7935 26.3086 36.1284C25.9189 36.4702 25.4712 36.73 24.9653 36.9077C24.4595 37.0786 23.9331 37.1641 23.3862 37.1641C22.7915 37.1641 22.2344 37.0889 21.7148 36.9385C21.1953 36.7881 20.7407 36.5522 20.3511 36.231C19.9546 35.9165 19.6299 35.5132 19.377 35.021C19.1309 34.522 18.9805 33.9272 18.9258 33.2368H20.874C20.874 33.6606 20.9424 34.0264 21.0791 34.334C21.2158 34.6348 21.4004 34.8809 21.6328 35.0723C21.8652 35.2637 22.1318 35.4038 22.4326 35.4927C22.7334 35.5747 23.0513 35.6157 23.3862 35.6157C23.7075 35.6157 24.0049 35.561 24.2783 35.4517C24.5518 35.3354 24.791 35.1714 24.9961 34.9595C25.2012 34.7544 25.3618 34.5015 25.478 34.2007C25.6011 33.8931 25.6694 33.5444 25.6831 33.1548L25.6729 25.0542ZM39.1772 33.9443C39.1841 33.6641 39.1362 33.4316 39.0337 33.2471C38.938 33.0557 38.7773 32.8677 38.5518 32.6831C38.2783 32.4644 37.916 32.29 37.4648 32.1602C37.0205 32.0303 36.6309 31.9209 36.2959 31.832C35.8242 31.7158 35.3252 31.5723 34.7988 31.4014C34.2793 31.2236 33.8008 30.9946 33.3633 30.7144C32.9189 30.4341 32.5532 30.0889 32.2661 29.6787C31.9858 29.2686 31.8457 28.7695 31.8457 28.1816C31.8457 27.5732 31.9995 27.0537 32.3071 26.623C32.6216 26.1924 33.0249 25.8438 33.5171 25.5771C33.9272 25.3516 34.3887 25.1807 34.9014 25.0645C35.4209 24.9482 35.9165 24.8901 36.3882 24.8901C36.9624 24.8901 37.5195 24.9653 38.0596 25.1157C38.6064 25.2593 39.0952 25.4814 39.5259 25.7822C39.9565 26.0898 40.3086 26.4727 40.582 26.9307C40.8623 27.3887 41.0229 27.9253 41.064 28.5405H39.1465C39.1328 28.1646 39.0439 27.8433 38.8799 27.5767C38.7227 27.3101 38.5142 27.0913 38.2544 26.9204C37.9946 26.7495 37.7007 26.6265 37.3726 26.5513C37.0444 26.4761 36.7095 26.4385 36.3677 26.4385C36.0942 26.4385 35.8037 26.4658 35.4961 26.5205C35.1885 26.5752 34.9048 26.6675 34.645 26.7974C34.3853 26.9341 34.1699 27.1152 33.999 27.3408C33.8281 27.5596 33.7427 27.8364 33.7427 28.1714C33.7427 28.4448 33.8076 28.6807 33.9375 28.8789C34.0742 29.0703 34.2451 29.2275 34.4502 29.3506C34.7852 29.5557 35.1885 29.73 35.6602 29.8735C36.1318 30.0103 36.5317 30.1162 36.8599 30.1914C37.3384 30.3145 37.8271 30.4717 38.3262 30.6631C38.8252 30.8477 39.2798 31.0835 39.6899 31.3706C40.1001 31.6646 40.4351 32.02 40.6948 32.437C40.9546 32.8472 41.0845 33.3428 41.0845 33.9238C41.0845 34.5049 40.9443 35.0005 40.6641 35.4106C40.3838 35.814 40.042 36.1387 39.6387 36.3848C39.1602 36.6514 38.6372 36.8496 38.0698 36.9795C37.5093 37.1025 36.9692 37.1641 36.4497 37.1641C35.8618 37.1641 35.2739 37.0923 34.686 36.9487C34.105 36.8052 33.5786 36.5796 33.1069 36.272C32.895 36.1353 32.6968 35.9814 32.5122 35.8105C32.3276 35.6396 32.1636 35.4517 32.02 35.2466C31.8491 34.9937 31.709 34.7168 31.5996 34.416C31.4971 34.1084 31.4355 33.7769 31.415 33.4214H33.3428C33.3564 33.8384 33.4556 34.1904 33.6401 34.4775C33.8315 34.7578 34.0742 34.9834 34.3682 35.1543C34.6621 35.332 34.9902 35.4585 35.3525 35.5337C35.7148 35.6021 36.0806 35.6362 36.4497 35.6362C36.7231 35.6362 37.0171 35.6123 37.3315 35.5645C37.6528 35.5166 37.9502 35.4277 38.2236 35.2979C38.4902 35.1748 38.7124 35.0039 38.8901 34.7852C39.0747 34.5664 39.1704 34.2861 39.1772 33.9443Z" fill="white"/>
</svg>
