<svg width="60" height="60" viewBox="0 0 60 60" fill="none" xmlns="http://www.w3.org/2000/svg">
<rect width="60" height="60" rx="5" fill="#F6530F"/>
<path fill-rule="evenodd" clip-rule="evenodd" d="M32.7319 4.59911C32.7235 6.1872 31.544 8.02153 28.9226 10.5263C24.586 14.6688 24.2409 16.6688 27.2563 20.186L29.3858 22.6713L27.9372 19.3357L26.4886 16.0001L29.9351 12.2499C33.7452 8.1039 34.7821 5.6354 33.5562 3.62837C32.9201 2.58588 32.7421 2.79491 32.7319 4.59911ZM33.412 11.6273C29.6651 13.7061 28.8315 15.9602 30.5333 19.4145C31.2344 20.8387 31.5702 22.2532 31.2791 22.5588C30.9889 22.8644 31.2057 23.1142 31.7617 23.1142C33.4196 23.1142 33.8288 20.612 32.6569 17.6413C31.6031 14.9718 31.6765 14.7539 34.4269 12.3429C37.779 9.40502 37.622 9.29342 33.412 11.6273ZM21.5352 23.2594C20.2561 23.7501 19.4243 24.5154 19.6866 24.9609C20.3338 26.0609 33.6668 25.9679 35.2504 24.8528C36.1203 24.2399 34.4733 24.1434 29.9773 24.5455C25.6027 24.9361 23.4386 24.8209 23.4386 24.1956C23.4386 23.6819 23.9136 23.061 24.4932 22.8148C26.4793 21.9742 23.8638 22.3666 21.5352 23.2594ZM38.8361 22.7944C40.8998 23.4233 40.6779 26.2877 38.4371 27.9351C37.4061 28.6933 36.942 29.3142 37.406 29.3142C37.8701 29.3142 39.1154 28.6782 40.1725 27.8997C42.7695 25.991 42.3442 22.7306 39.4689 22.5074C38.2506 22.4136 37.9831 22.534 38.8361 22.7944ZM22.5949 27.8155C22.5949 29.4763 26.6809 30.3062 31.4681 29.618C36.7151 28.8625 36.224 27.4072 30.821 27.6969C28.3844 27.8279 25.5377 27.6207 24.4932 27.2363C23.0944 26.7217 22.5949 26.874 22.5949 27.8155ZM23.4386 31.9953C23.4386 33.7605 31.2513 34.4257 33.563 32.8571C35.0985 31.8154 35.2242 31.8491 28.7117 31.5577C25.8119 31.4284 23.4386 31.625 23.4386 31.9953ZM18.5873 33.7702C13.9588 35.7232 18.2895 37.4176 28.0789 37.4849L33.9848 37.5248L28.9226 38.182C24.4806 38.7586 24.791 38.81 31.4537 38.6036C39.0665 38.368 42 37.7418 42 36.3512C42 35.9411 40.8694 36.02 39.4866 36.5257C38.1046 37.0323 36.4906 37.2422 35.9009 36.9925C35.3111 36.7436 35.6098 36.508 36.5657 36.4699C37.5208 36.4318 39.0395 35.7994 39.9405 35.066C41.4676 33.8225 41.4187 33.7924 39.2031 34.6232C36.2325 35.7374 20.0638 35.8038 20.0638 34.702C20.0638 34.2556 20.5388 33.6896 21.1184 33.4434C21.6989 33.1981 21.7934 32.9908 21.3293 32.9828C20.8653 32.9757 19.6318 33.33 18.5873 33.7702ZM17.5327 46.7779C17.5327 50.3385 17.1117 53.3162 16.5202 53.9371C15.7331 54.7635 15.82 55 16.9126 55C17.6845 55 18.729 54.1922 19.2319 53.2055C20.4502 50.815 19.9575 41.5211 18.5873 41.0464C17.8119 40.778 17.5327 42.2961 17.5327 46.7779ZM21.7512 44.3714C20.7227 45.0693 20.8315 45.2323 22.3342 45.2438C25.0112 45.2633 25.477 46.7442 23.0108 47.3935C21.4761 47.7982 20.9075 48.5422 20.9075 50.1454C20.9075 52.0665 21.2796 52.3428 23.8604 52.3428C26.7872 52.3428 26.8134 52.3083 26.8134 48.4519C26.8134 45.7212 26.4152 44.4006 25.4787 44.0233C23.7119 43.3112 23.2496 43.3546 21.7512 44.3714ZM28.2485 44.1358C27.5137 45.4865 29.8456 51.892 31.1703 52.1595C32.5826 52.4447 34.4067 48.397 34.4067 44.9772C34.4067 42.6646 33.39 43.7461 32.2105 47.3137L31.2799 50.1286L30.6691 47.2597C30.0498 44.3528 28.9218 42.8967 28.2485 44.1358ZM36.6568 44.0764C35.5508 45.2376 36.1228 45.9692 37.7815 45.514C40.2215 44.8444 39.857 46.5582 37.2997 47.7814C34.0422 49.3403 34.918 51.8327 38.8429 52.1746C41.9899 52.4491 42 52.4385 42 49.0303C42 47.1499 41.5444 45.1331 40.9876 44.5485C39.8848 43.3909 37.552 43.1358 36.6568 44.0764ZM24.964 49.7521C24.7978 50.2756 24.3017 50.7043 23.8604 50.7043C23.4192 50.7043 22.9231 50.2756 22.7569 49.7521C22.5907 49.2287 23.0868 48.8 23.8604 48.8C24.6341 48.8 25.1302 49.2287 24.964 49.7521ZM39.4689 49.5378C39.4689 50.691 38.4657 51.458 37.6499 50.9292C36.7775 50.3633 37.5301 48.8 38.675 48.8C39.112 48.8 39.4689 49.1321 39.4689 49.5378Z" fill="white"/>
</svg>
