<svg width="143" height="219" viewBox="0 0 143 219" fill="none" xmlns="http://www.w3.org/2000/svg">
<path fill-rule="evenodd" clip-rule="evenodd" d="M52.535 23.2116C42.112 36.5356 33.585 48.1126 33.587 48.9376C33.589 49.7626 40.881 61.9646 49.792 76.0526C58.703 90.1416 65.994 102.171 65.994 102.785C65.994 103.399 63.746 110.077 60.998 117.624C58.25 125.171 56.338 131.639 56.748 131.998C57.158 132.356 60.708 134.357 64.635 136.445L71.776 140.241L78.635 136.498C82.408 134.439 85.882 132.385 86.357 131.934C86.833 131.48 84.88 124.693 81.994 116.775C77.135 103.442 76.871 102.263 78.233 99.9376C79.038 98.5626 86.699 86.5056 95.257 73.1436L110.819 48.8496L92.816 25.6436C82.914 12.8806 74.064 1.66058 73.149 0.711577C71.586 -0.910423 70.342 0.446575 52.535 23.2116ZM45.494 15.0526C33.944 23.2966 23.853 30.4176 23.07 30.8766C21.926 31.5476 22.579 33.2086 26.388 39.3206L31.131 46.9286L33.366 44.1836C42.772 32.6306 67.586 -0.158424 66.803 0.000576238C66.633 0.0345762 57.044 6.80858 45.494 15.0526ZM76.66 1.19558C78.835 4.79258 111.22 45.9376 111.877 45.9376C112.677 45.9376 121.009 33.2836 120.972 32.1256C120.953 31.5106 108.915 22.8416 84.177 5.62658C79.584 2.43158 76.202 0.437576 76.66 1.19558ZM13.097 56.1206C9.208 67.7716 6.196 77.4736 6.403 77.6796C6.702 77.9786 14.577 68.1606 29.105 49.3766C29.802 48.4746 21.79 34.9376 20.559 34.9376C20.343 34.9376 16.985 44.4696 13.097 56.1206ZM118.14 41.4406C115.86 45.0776 113.994 48.2836 113.994 48.5646C113.994 49.2446 136.063 77.8626 137.066 78.4816C137.957 79.0326 124.128 36.8666 123.013 35.6336C122.613 35.1906 120.42 37.8046 118.14 41.4406ZM23.843 59.7936C20.184 64.5476 14.638 71.7026 11.517 75.6926L5.842 82.9476L19.264 89.3106C31.258 94.9956 34.251 95.9676 47.38 98.4326C55.461 99.9506 62.243 101.023 62.451 100.814C62.847 100.418 33.023 53.5246 31.414 52.0136C30.874 51.5066 27.745 54.7216 23.843 59.7936ZM106.844 59.0726C103.901 63.6576 96.726 74.8406 90.898 83.9236C85.071 93.0066 80.661 100.581 81.098 100.755C81.536 100.929 88.329 99.8696 96.194 98.4016C108.963 96.0176 111.926 95.0476 123.875 89.3446C133.994 84.5146 137.015 82.6506 136.27 81.6976C135.728 81.0046 130.42 74.1376 124.474 66.4376C118.529 58.7376 113.334 52.0546 112.929 51.5876C112.525 51.1196 109.786 54.4886 106.844 59.0726ZM13.204 97.8096C23.086 116.343 22.116 115.759 25.153 105.01L27.743 95.8436L22.934 93.4076C20.289 92.0666 15.603 89.8546 12.52 88.4916L6.914 86.0126L13.204 97.8096ZM125.744 90.7586C120.381 93.2426 115.984 95.7606 115.972 96.3556C115.935 98.1866 120.423 113.939 120.975 113.916C121.524 113.892 136.113 86.6736 135.722 86.4016C135.597 86.3146 131.107 88.2756 125.744 90.7586ZM3.994 102.805C3.994 117.826 4.128 119.034 5.744 118.561C6.706 118.28 10.155 117.576 13.407 116.998C16.659 116.419 19.468 115.797 19.65 115.615C20.034 115.231 6.215 88.9046 4.885 87.4876C4.361 86.9286 3.994 93.2406 3.994 102.805ZM130.764 101.19L123.035 115.438L127.764 116.519C130.366 117.113 133.957 117.89 135.744 118.244L138.994 118.888V102.913C138.994 94.1266 138.881 86.9386 138.744 86.9396C138.607 86.9396 135.016 93.3526 130.764 101.19ZM18.018 122.413C15.044 125.425 12.81 128.039 13.053 128.223C13.295 128.407 20.694 127.362 29.494 125.899L45.494 123.24L37.994 121.035C33.869 119.822 29.189 118.404 27.595 117.884C23.557 116.566 23.999 116.357 18.018 122.413ZM108.796 119.834C104.012 121.301 99.87 122.729 99.592 123.007C99.314 123.285 106.273 124.642 115.057 126.022L131.028 128.531L125.292 122.734C122.138 119.546 119.093 116.989 118.525 117.052C117.958 117.115 113.58 118.367 108.796 119.834ZM9.733 119.897C7.664 120.299 5.726 120.873 5.424 121.174C5.123 121.475 5.59 123.429 6.462 125.516L8.047 129.31L13.021 124.412C15.756 121.718 17.994 119.384 17.994 119.226C17.994 118.766 13.815 119.106 9.733 119.897ZM129.45 123.893C132.134 126.618 134.646 128.653 135.032 128.415C136.138 127.731 138.324 121.935 137.708 121.318C136.917 120.528 129.951 118.99 127.032 118.962C124.747 118.94 124.921 119.295 129.45 123.893ZM23.994 128.809L8.494 131.496L4.266 147.967C1.941 157.026 0.140999 164.739 0.265999 165.106C0.460999 165.678 17.581 150.464 38.301 131.307C45.209 124.92 45.818 125.026 23.994 128.809ZM23.747 147.596L0 169.186L11.927 181.812C18.486 188.756 29.285 199.831 35.924 206.422L47.994 218.407V172.172C47.994 146.743 47.882 125.954 47.744 125.972C47.606 125.991 36.808 135.722 23.747 147.596ZM94.998 172.084L95.002 218.438L117.248 196.119C129.483 183.843 140.273 172.744 141.226 171.455L142.957 169.111L122.726 150.699C111.598 140.573 100.807 130.813 98.744 129.01L94.994 125.731L94.998 172.084ZM103.011 129.404C112.014 138.363 142.527 165.631 142.787 164.95C143.229 163.789 135.286 132.816 134.328 131.966C133.597 131.317 103.08 125.857 100.511 125.916C99.97 125.928 101.095 127.498 103.011 129.404Z" fill="black"/>
</svg>
