<svg width="60" height="60" viewBox="0 0 60 60" fill="none" xmlns="http://www.w3.org/2000/svg">
<rect width="60" height="60" rx="5" fill="#F6530F"/>
<path fill-rule="evenodd" clip-rule="evenodd" d="M22.7403 10.9556C21.189 11.728 20.8031 12.5363 20.615 15.4083L20.3853 18.9169L25.5433 19.1801C29.9197 19.4035 29.586 19.4658 23.3445 19.5902C19.298 19.6712 15.1279 20.1249 14.0763 20.5988C11.4097 21.8001 9.5051 26.9793 10.1139 31.3727C10.8388 36.6007 12.453 39.0857 15.4903 39.6489C19.0266 40.305 19.7074 39.6954 19.7074 35.8696C19.7074 30.8441 21.9153 29.4853 30.0796 29.4853C35.8397 29.4853 36.6373 29.3069 38.3175 27.6444C39.987 25.994 40.1789 25.1789 40.1789 19.7372C40.1789 14.2955 39.987 13.4804 38.3175 11.83C36.6578 10.1878 35.8185 9.99058 30.5459 10.0003C27.2955 10.0063 23.7828 10.436 22.7403 10.9556ZM26.1522 14.4882C26.1522 15.0956 25.5547 15.706 24.8253 15.8455C23.8942 16.0224 23.4985 15.6175 23.4985 14.4882C23.4985 13.3589 23.8942 12.954 24.8253 13.131C25.5547 13.2705 26.1522 13.8808 26.1522 14.4882ZM40.9371 22.4112C40.9371 25.3289 39.8483 27.8484 37.9702 29.2739C37.2416 29.8265 34.1481 30.1969 30.1327 30.2112C21.2148 30.2434 20.4657 30.9461 20.4657 39.2829C20.4657 42.6093 20.797 45.9439 21.2026 46.693C22.5924 49.2605 28.5549 50.7115 33.3498 49.6482C37.8004 48.6621 40.1789 46.4373 40.1789 43.2609V40.8014L35.061 40.5397C31.0221 40.332 31.5725 40.2458 37.6723 40.1303C44.5552 39.9991 45.6265 39.7921 47.4561 38.2354C49.1181 36.8219 49.5775 35.6821 49.8641 32.2718C50.5715 23.8322 48.5221 19.7372 43.5908 19.7372C41.0538 19.7372 40.9371 19.8549 40.9371 22.4112ZM37.002 45.0448C36.861 45.7662 36.2438 46.3571 35.6297 46.3571C35.0155 46.3571 34.3983 45.7662 34.2573 45.0448C34.0784 44.124 34.4878 43.7326 35.6297 43.7326C36.7715 43.7326 37.1809 44.124 37.002 45.0448Z" fill="white"/>
</svg>
