<svg width="60" height="60" viewBox="0 0 60 60" fill="none" xmlns="http://www.w3.org/2000/svg">
<rect width="60" height="60" rx="5" fill="#F6530F"/>
<path fill-rule="evenodd" clip-rule="evenodd" d="M48.2784 9.19993C46.9232 10.4076 45.393 11.2622 44.8777 11.0989C44.3625 10.9356 43.7008 11.1704 43.4088 11.6207C43.116 12.0709 42.2425 12.4395 41.468 12.4395C40.6926 12.4395 37.8922 14.5212 35.244 17.0664C32.352 19.8449 29.5982 21.7866 28.3493 21.9266C26.6563 22.1163 26.1476 22.7268 25.6078 25.216C25.0017 28.0053 25.1718 28.496 27.5584 30.8367C29.545 32.7854 30.4299 33.1975 31.2462 32.5537C31.8367 32.0879 32.8312 31.8927 33.4569 32.1213C34.9528 32.6672 36.4299 31.2014 36.4299 29.171C36.4299 28.2339 38.3437 25.7564 40.965 23.2999C45.2785 19.257 47.8801 15.6161 47.8801 13.6223C47.8801 13.1207 48.8002 11.889 49.9248 10.8843C51.873 9.14394 52.6655 6.99224 51.3561 7.00002C51.0183 7.00158 49.6337 7.9915 48.2784 9.19993ZM20.6858 32.2745C18.5487 34.1727 16.8009 36.0242 16.8009 36.3889C16.8009 37.2777 20.3783 40.4341 21.3859 40.4341C21.8259 40.4341 23.815 38.8556 25.8065 36.9263L29.428 33.4176L26.999 31.1205L24.5707 28.8234L20.6858 32.2745ZM13.0689 33.0327C12.4882 35.976 13.0354 37.3361 14.3055 36.1051C15.4735 34.9729 15.6877 30.9152 14.5983 30.5513C14.0152 30.3561 13.401 31.353 13.0689 33.0327ZM7.48282 33.8881C6.73528 35.7404 6.88659 38.8789 7.72409 38.8789C8.66301 38.8789 10.3871 34.2629 9.79086 33.3461C9.09812 32.2799 8.0308 32.5311 7.48282 33.8881ZM10.3339 37.1891C9.09158 39.3952 9.21672 41.9894 10.5646 41.9894C11.9018 41.9894 13.0607 37.3446 11.9795 36.3166C11.5215 35.8811 10.8778 36.2225 10.3339 37.1891ZM13.6144 40.8502C12.2183 42.3619 11.0757 44.1115 11.0757 44.7383C11.0757 45.3651 10.3617 45.8775 9.48825 45.8775C7.56134 45.8775 6.81053 46.869 7.48037 48.5292C7.91875 49.6164 10.5875 49.7657 29.5655 49.7657H51.1516V47.8216V45.8775H32.5891H14.0266L16.7682 43.1877C19.0762 40.924 19.3445 40.3082 18.4644 39.2996C16.9792 37.5974 16.4664 37.7614 13.6144 40.8502ZM16.5964 51.9026C23.4559 52.0325 34.6813 52.0325 41.5416 51.9026C48.4011 51.7727 42.7889 51.6662 29.069 51.6662C15.3491 51.6662 9.73607 51.7727 16.5964 51.9026Z" fill="white"/>
</svg>
