<svg width="75" height="60" viewBox="0 0 75 60" fill="none" xmlns="http://www.w3.org/2000/svg">
<rect x="8" width="60" height="60" rx="5" fill="#F6530F"/>
<path d="M36.4644 26.623H32.1064V37H30.1787V26.623H25.8413V25.0542H36.4644V26.623ZM46.6772 33.9443C46.6841 33.6641 46.6362 33.4316 46.5337 33.2471C46.438 33.0557 46.2773 32.8677 46.0518 32.6831C45.7783 32.4644 45.416 32.29 44.9648 32.1602C44.5205 32.0303 44.1309 31.9209 43.7959 31.832C43.3242 31.7158 42.8252 31.5723 42.2988 31.4014C41.7793 31.2236 41.3008 30.9946 40.8633 30.7144C40.4189 30.4341 40.0532 30.0889 39.7661 29.6787C39.4858 29.2686 39.3457 28.7695 39.3457 28.1816C39.3457 27.5732 39.4995 27.0537 39.8071 26.623C40.1216 26.1924 40.5249 25.8438 41.0171 25.5771C41.4272 25.3516 41.8887 25.1807 42.4014 25.0645C42.9209 24.9482 43.4165 24.8901 43.8882 24.8901C44.4624 24.8901 45.0195 24.9653 45.5596 25.1157C46.1064 25.2593 46.5952 25.4814 47.0259 25.7822C47.4565 26.0898 47.8086 26.4727 48.082 26.9307C48.3623 27.3887 48.5229 27.9253 48.564 28.5405H46.6465C46.6328 28.1646 46.5439 27.8433 46.3799 27.5767C46.2227 27.3101 46.0142 27.0913 45.7544 26.9204C45.4946 26.7495 45.2007 26.6265 44.8726 26.5513C44.5444 26.4761 44.2095 26.4385 43.8677 26.4385C43.5942 26.4385 43.3037 26.4658 42.9961 26.5205C42.6885 26.5752 42.4048 26.6675 42.145 26.7974C41.8853 26.9341 41.6699 27.1152 41.499 27.3408C41.3281 27.5596 41.2427 27.8364 41.2427 28.1714C41.2427 28.4448 41.3076 28.6807 41.4375 28.8789C41.5742 29.0703 41.7451 29.2275 41.9502 29.3506C42.2852 29.5557 42.6885 29.73 43.1602 29.8735C43.6318 30.0103 44.0317 30.1162 44.3599 30.1914C44.8384 30.3145 45.3271 30.4717 45.8262 30.6631C46.3252 30.8477 46.7798 31.0835 47.1899 31.3706C47.6001 31.6646 47.9351 32.02 48.1948 32.437C48.4546 32.8472 48.5845 33.3428 48.5845 33.9238C48.5845 34.5049 48.4443 35.0005 48.1641 35.4106C47.8838 35.814 47.542 36.1387 47.1387 36.3848C46.6602 36.6514 46.1372 36.8496 45.5698 36.9795C45.0093 37.1025 44.4692 37.1641 43.9497 37.1641C43.3618 37.1641 42.7739 37.0923 42.186 36.9487C41.605 36.8052 41.0786 36.5796 40.6069 36.272C40.395 36.1353 40.1968 35.9814 40.0122 35.8105C39.8276 35.6396 39.6636 35.4517 39.52 35.2466C39.3491 34.9937 39.209 34.7168 39.0996 34.416C38.9971 34.1084 38.9355 33.7769 38.915 33.4214H40.8428C40.8564 33.8384 40.9556 34.1904 41.1401 34.4775C41.3315 34.7578 41.5742 34.9834 41.8682 35.1543C42.1621 35.332 42.4902 35.4585 42.8525 35.5337C43.2148 35.6021 43.5806 35.6362 43.9497 35.6362C44.2231 35.6362 44.5171 35.6123 44.8315 35.5645C45.1528 35.5166 45.4502 35.4277 45.7236 35.2979C45.9902 35.1748 46.2124 35.0039 46.3901 34.7852C46.5747 34.5664 46.6704 34.2861 46.6772 33.9443Z" fill="white"/>
</svg>
