<svg width="60" height="60" viewBox="0 0 60 60" fill="none" xmlns="http://www.w3.org/2000/svg">
<rect width="60" height="60" rx="5" fill="#F6530F"/>
<path fill-rule="evenodd" clip-rule="evenodd" d="M29.143 17.4817L20.3546 24.9875L16.2407 22.0685C12.8841 19.6878 11.8042 19.3105 10.3793 20.0192C7.25457 21.5726 7.42886 23.2438 11.0801 26.7171L14.5651 30.0342L10.9759 32.8598C8.00745 35.1962 7.55195 35.9391 8.34436 37.1494C10.409 40.3047 11.895 40.3698 16.2038 37.4942L20.3249 34.7454L24.6365 38.1027C27.0074 39.9499 29.7566 42.2955 30.7449 43.3155C31.7332 44.3356 34.017 46.2563 35.8201 47.5851L39.0976 50L45.0488 47.5192L51 45.0384L50.7556 29.7788L50.5104 14.5184L45.569 12.2713C42.8512 11.0359 40.0212 10.0134 39.28 10C38.5388 9.98668 33.9775 13.354 29.143 17.4817ZM39.8172 38.0877C39.3869 38.4867 28.9705 31.3456 28.1224 30.0701C27.8726 29.6945 30.3819 27.5009 33.6989 25.1962L39.7292 21.005L39.9862 29.3481C40.1281 33.9366 40.0517 37.869 39.8172 38.0877Z" fill="white"/>
</svg>
