<svg width="60" height="60" viewBox="0 0 60 60" fill="none" xmlns="http://www.w3.org/2000/svg">
<rect width="60" height="60" rx="5" fill="#F6530F"/>
<path fill-rule="evenodd" clip-rule="evenodd" d="M37.1312 12.3233C36.5416 13.1045 33.5936 16.2841 30.58 19.3895L25.1013 25.0349L20.5764 21.3888C16.2548 17.9068 15.9473 17.7892 13.7545 18.7792L11.4584 19.8157L11.2288 29.1782L11 38.5408L13.4847 39.5114C15.8546 40.4373 16.1859 40.3151 20.6198 36.8717L25.2694 33.2612L30.2487 38.5183C32.9868 41.4095 36.2095 44.7252 37.41 45.8877L39.5929 48L44.7969 45.7725L50 43.5442V29.3507V15.1572L45.548 13.0302C40.3228 10.5343 38.5909 10.3889 37.1312 12.3233ZM41.3896 29.1519V37.3458L36.4211 33.5992C33.6879 31.5388 31.4402 29.5526 31.4262 29.1852C31.4049 28.6631 40.3252 21.1823 41.1846 21.0014C41.2978 20.9774 41.3896 24.6451 41.3896 29.1519ZM20.8888 28.8247C20.8888 29.1643 19.7924 30.5781 18.4525 31.9673L16.017 34.4933L15.9924 29.1279L15.9686 23.7626L18.4287 25.9854C19.7817 27.2083 20.8888 28.486 20.8888 28.8247Z" fill="white"/>
</svg>
