<svg width="60" height="60" viewBox="0 0 60 60" fill="none" xmlns="http://www.w3.org/2000/svg">
<rect width="60" height="60" rx="5" fill="#F6530F"/>
<path fill-rule="evenodd" clip-rule="evenodd" d="M18.125 8.28895L14 10.5538V18.5053C14 23.9384 14.2805 26.4568 14.8863 26.4568C15.3742 26.4568 17.6536 25.49 19.9518 24.3078C23.8921 22.2816 24.1444 21.9828 24.3691 19.0859L24.6071 16.013L30.6964 19.1798L36.7857 22.3458V29.9033V37.4607L30.5 40.7623L24.2143 44.0647L24.2394 41.0872C24.2622 38.3265 24.5199 37.9699 27.7751 36.1944L31.2857 34.2798V29.7034C31.2857 27.1871 31.0005 24.9695 30.6524 24.776C30.3036 24.5825 26.4143 26.3474 22.0096 28.6991L14 32.974V41.0236V49.074L18.2837 51.5367C20.6401 52.8919 23.1379 54 23.8348 54C25.132 54 43.1461 44.7801 45.625 42.8471C46.8319 41.9064 47 40.3344 47 29.988C47 19.6424 46.8319 18.0696 45.625 17.1261C42.886 14.9841 25.1516 5.97674 23.7193 6.00005C22.9108 6.01276 20.3941 7.04315 18.125 8.28895ZM37.5714 14.8266L44.25 18.4397V30V41.5597L34.5425 46.7208C29.2036 49.5592 24.4304 51.8792 23.9354 51.8764C23.4404 51.8742 22.0489 51.2866 20.842 50.5719L18.6483 49.2718L28.9191 43.8443L39.1908 38.4176L38.9708 29.827L38.75 21.2364L30.5 16.8146C25.9625 14.3823 21.4211 11.9522 20.4083 11.4147L18.5666 10.4359L21.1531 8.96411L23.7389 7.49232L27.3163 9.35325C29.2829 10.3766 33.8982 12.8399 37.5714 14.8266ZM21.6969 17.821C21.9412 21.4299 22.107 21.2314 16.9464 23.4914C16.6227 23.6333 16.3571 20.9906 16.3571 17.6183V11.4875L18.9107 12.936C21.1437 14.203 21.4934 14.816 21.6969 17.821ZM28.9286 30.2882V33.4133L23.0082 36.6443C19.7514 38.4212 16.7461 39.8753 16.3296 39.8753C15.2171 39.8753 15.4041 35.123 16.5536 34.188C17.3699 33.5241 28.1067 27.3757 28.7321 27.2139C28.8398 27.1857 28.9286 28.5692 28.9286 30.2882ZM21.8571 42.6303C21.8571 45.0181 21.4989 45.576 19.1731 46.8091C16.0554 48.4624 15.5714 48.2357 15.5714 45.1191C15.5714 43.2984 16.0939 42.5399 18.125 41.4114C21.6599 39.4473 21.8571 39.5116 21.8571 42.6303Z" fill="white"/>
</svg>
