<svg width="60" height="60" viewBox="0 0 60 60" fill="none" xmlns="http://www.w3.org/2000/svg">
<rect width="60" height="60" rx="5" fill="#F6530F"/>
<path d="M21.0024 34.1392H15.6909L14.563 37H12.6353L17.5264 25.0542H19.2183L24.0376 37H22.1201L21.0024 34.1392ZM16.3062 32.5908H20.3975L18.6748 28.2021L18.3569 27.3921L18.0493 28.1816L16.3062 32.5908ZM27.5547 37L25.1758 25.0542H26.9292L28.375 32.8984L28.4878 33.5239L28.6211 32.9087L30.3745 25.0542H31.9536L33.666 32.8984L33.7993 33.5239L33.9121 32.8984L35.3477 25.0542H37.1113L34.7222 37H33.0918L31.2974 29.0942L31.1641 28.4893L31.0205 29.0942L29.1851 37H27.5547ZM46.4834 33.9443C46.4902 33.6641 46.4424 33.4316 46.3398 33.2471C46.2441 33.0557 46.0835 32.8677 45.8579 32.6831C45.5845 32.4644 45.2222 32.29 44.771 32.1602C44.3267 32.0303 43.937 31.9209 43.6021 31.832C43.1304 31.7158 42.6313 31.5723 42.105 31.4014C41.5854 31.2236 41.1069 30.9946 40.6694 30.7144C40.2251 30.4341 39.8594 30.0889 39.5723 29.6787C39.292 29.2686 39.1519 28.7695 39.1519 28.1816C39.1519 27.5732 39.3057 27.0537 39.6133 26.623C39.9277 26.1924 40.3311 25.8438 40.8232 25.5771C41.2334 25.3516 41.6948 25.1807 42.2075 25.0645C42.7271 24.9482 43.2227 24.8901 43.6943 24.8901C44.2686 24.8901 44.8257 24.9653 45.3657 25.1157C45.9126 25.2593 46.4014 25.4814 46.832 25.7822C47.2627 26.0898 47.6147 26.4727 47.8882 26.9307C48.1685 27.3887 48.3291 27.9253 48.3701 28.5405H46.4526C46.439 28.1646 46.3501 27.8433 46.186 27.5767C46.0288 27.3101 45.8203 27.0913 45.5605 26.9204C45.3008 26.7495 45.0068 26.6265 44.6787 26.5513C44.3506 26.4761 44.0156 26.4385 43.6738 26.4385C43.4004 26.4385 43.1099 26.4658 42.8022 26.5205C42.4946 26.5752 42.2109 26.6675 41.9512 26.7974C41.6914 26.9341 41.4761 27.1152 41.3052 27.3408C41.1343 27.5596 41.0488 27.8364 41.0488 28.1714C41.0488 28.4448 41.1138 28.6807 41.2437 28.8789C41.3804 29.0703 41.5513 29.2275 41.7563 29.3506C42.0913 29.5557 42.4946 29.73 42.9663 29.8735C43.438 30.0103 43.8379 30.1162 44.166 30.1914C44.6445 30.3145 45.1333 30.4717 45.6323 30.6631C46.1313 30.8477 46.5859 31.0835 46.9961 31.3706C47.4062 31.6646 47.7412 32.02 48.001 32.437C48.2607 32.8472 48.3906 33.3428 48.3906 33.9238C48.3906 34.5049 48.2505 35.0005 47.9702 35.4106C47.6899 35.814 47.3481 36.1387 46.9448 36.3848C46.4663 36.6514 45.9434 36.8496 45.376 36.9795C44.8154 37.1025 44.2754 37.1641 43.7559 37.1641C43.168 37.1641 42.5801 37.0923 41.9922 36.9487C41.4111 36.8052 40.8848 36.5796 40.4131 36.272C40.2012 36.1353 40.0029 35.9814 39.8184 35.8105C39.6338 35.6396 39.4697 35.4517 39.3262 35.2466C39.1553 34.9937 39.0151 34.7168 38.9058 34.416C38.8032 34.1084 38.7417 33.7769 38.7212 33.4214H40.6489C40.6626 33.8384 40.7617 34.1904 40.9463 34.4775C41.1377 34.7578 41.3804 34.9834 41.6743 35.1543C41.9683 35.332 42.2964 35.4585 42.6587 35.5337C43.021 35.6021 43.3867 35.6362 43.7559 35.6362C44.0293 35.6362 44.3232 35.6123 44.6377 35.5645C44.959 35.5166 45.2563 35.4277 45.5298 35.2979C45.7964 35.1748 46.0186 35.0039 46.1963 34.7852C46.3809 34.5664 46.4766 34.2861 46.4834 33.9443Z" fill="white"/>
</svg>
