<svg width="60" height="60" viewBox="0 0 60 60" fill="none" xmlns="http://www.w3.org/2000/svg">
<rect width="60" height="60" rx="5" fill="#F6530F"/>
<path d="M29.4414 33.1343C29.3594 33.7905 29.1782 34.3682 28.8979 34.8672C28.6177 35.3662 28.2622 35.7866 27.8315 36.1284C27.4009 36.4702 26.9053 36.73 26.3447 36.9077C25.791 37.0786 25.1929 37.1641 24.5503 37.1641C23.7505 37.1641 23.0396 37.0137 22.4175 36.7129C21.7954 36.4121 21.2725 36.0054 20.8486 35.4927C20.418 34.98 20.0898 34.3853 19.8643 33.7085C19.6387 33.0317 19.5225 32.314 19.5156 31.5552V30.5195C19.5225 29.7471 19.6421 29.0225 19.8745 28.3457C20.1069 27.6621 20.4453 27.064 20.8896 26.5513C21.3271 26.0386 21.8604 25.6353 22.4893 25.3413C23.125 25.0405 23.8496 24.8901 24.6631 24.8901C25.3057 24.8901 25.9004 24.9824 26.4473 25.167C27.001 25.3516 27.4863 25.6182 27.9033 25.9668C28.3135 26.3154 28.6519 26.7427 28.9185 27.2485C29.1851 27.7544 29.3594 28.3286 29.4414 28.9712H27.5444C27.4761 28.5747 27.3701 28.2227 27.2266 27.915C27.083 27.6074 26.8984 27.3477 26.6729 27.1357C26.4336 26.9102 26.1465 26.7393 25.8115 26.623C25.4834 26.5068 25.1006 26.4487 24.6631 26.4487C24.082 26.4487 23.5864 26.5649 23.1763 26.7974C22.7661 27.0229 22.4312 27.3237 22.1714 27.6997C21.9116 28.0825 21.7202 28.52 21.5972 29.0122C21.481 29.4976 21.4194 29.9966 21.4126 30.5093V31.5552C21.4194 32.0542 21.4775 32.5464 21.5869 33.0317C21.6963 33.5171 21.874 33.9512 22.1201 34.334C22.3662 34.7168 22.6875 35.0278 23.084 35.2671C23.4873 35.4995 23.9761 35.6157 24.5503 35.6157C25.0356 35.6226 25.4595 35.5645 25.8218 35.4414C26.1841 35.3115 26.4883 35.1235 26.7344 34.8774C26.9395 34.6724 27.1069 34.4263 27.2368 34.1392C27.3735 33.8452 27.4761 33.5103 27.5444 33.1343H29.4414ZM38.2495 32.7959H35.5425L34.7222 37H33.2559L34.0762 32.7959H31.6255V31.3911H34.3428L35.0503 27.7612H32.4048V26.3359H35.3271L36.168 22.0703H37.6343L36.7935 26.3359H39.5005L40.3413 22.0703H41.8076L40.9668 26.3359H43.0688V27.7612H40.6899L39.9824 31.3911H42.2998V32.7959H39.7158L38.8955 37H37.4292L38.2495 32.7959ZM35.8091 31.3911H38.5161L39.2236 27.7612H36.5166L35.8091 31.3911Z" fill="white"/>
</svg>
