<svg width="60" height="60" viewBox="0 0 60 60" fill="none" xmlns="http://www.w3.org/2000/svg">
<rect width="60" height="60" rx="5" fill="#F6530F"/>
<path fill-rule="evenodd" clip-rule="evenodd" d="M20.762 8.29509C19.6787 9.72006 20.3062 13.4187 21.6306 13.4187C22.0644 13.4187 22.4196 14.6654 22.4196 16.1892C22.4196 18.0621 22.0001 18.9597 21.124 18.9597C20.4111 18.9597 19.5231 19.8592 19.151 20.9572C18.5936 22.6029 17.7023 22.9982 14.1038 23.1967C10.2778 23.4082 9.73405 23.2171 9.73405 21.661C9.73405 20.683 10.074 19.8832 10.4893 19.8832C11.7697 19.8832 12.3118 17.0739 11.3925 15.1992C10.2237 12.8138 6.66923 12.8904 5.47509 15.3276C4.74864 16.8098 4.83659 17.7314 5.86835 19.451C6.59903 20.6691 7.19694 22.4866 7.19694 23.4904C7.19694 26.0393 8.28875 26.5352 14.026 26.5943C17.8393 26.6331 19.0368 26.9683 19.0368 27.9971C19.0368 28.9853 18.4 29.2097 16.6714 28.8329C13.7224 28.1883 11.8492 29.3565 12.5655 31.3938C12.9503 32.4881 13.9 32.8483 15.8595 32.6414C18.1167 32.4031 18.6596 32.7005 18.8676 34.2871C19.0943 36.0205 18.718 36.2144 15.2734 36.1341C13.1575 36.0852 11.4255 35.761 11.4255 35.4138C11.4255 34.421 8.41814 33.636 6.95846 34.2483C3.74394 35.5948 4.86619 41.1238 8.35471 41.1238C9.42283 41.1238 10.562 40.8357 10.8842 40.4838C11.2064 40.1319 13.1727 39.7358 15.2531 39.6037C18.0989 39.4236 19.0368 39.6961 19.0368 40.7054C19.0368 41.4433 19.7979 42.0473 20.7282 42.0473C21.9688 42.0473 22.4196 42.6633 22.4196 44.356C22.4196 46.2428 22.006 46.6648 20.1607 46.6648C18.9184 46.6648 17.2371 46.0082 16.4253 45.2057C14.4209 43.2248 11.4255 44.9286 11.4255 48.0501C11.4255 51.2288 14.4252 52.8708 16.4946 50.8252C17.7031 49.6311 18.9032 49.439 21.9891 49.9442L25.9377 50.5906L25.3516 46.3194C24.7749 42.1212 24.8053 42.0473 27.0853 42.0473C29.3332 42.0473 29.3916 42.1757 28.978 46.1855C28.6888 48.992 28.9129 50.6525 29.6766 51.3442C31.5616 53.0527 32.568 51.4052 32.568 46.6103C32.568 42.2994 32.6907 42.0473 34.7914 42.0473C36.9632 42.0473 37.0021 42.1516 36.4667 46.5595C36.0557 49.9386 36.2071 51.1918 37.068 51.5529C39.3421 52.506 40.2665 50.8196 39.6779 46.7959C39.0495 42.5035 40.7722 39.2768 43.6933 39.2768C45.6578 39.2768 45.8726 44.031 43.985 45.7413C42.2801 47.2863 42.3883 48.8249 44.3377 50.7513C45.5893 51.9888 46.3369 52.1319 47.6207 51.3811C49.9591 50.0153 50.4081 48.1249 48.94 45.8355C48.1653 44.6285 47.7822 42.3594 47.9463 39.9574C48.2127 36.063 48.2 36.0445 45.3263 36.0445C43.7059 36.0445 42.2767 35.5163 42.0695 34.8403C41.8107 33.9999 42.4264 33.721 44.111 33.9168C46.1872 34.1587 46.5221 33.8771 46.5221 31.8888C46.5221 29.9217 46.1779 29.6197 44.1964 29.846C42.1921 30.075 41.8708 29.7795 41.8708 27.7053C41.8708 25.4445 42.0873 25.3171 45.465 25.5932C48.5848 25.8472 49.0592 25.6422 49.0592 24.039C49.0592 22.4358 48.5848 22.2308 45.465 22.4847C42.697 22.711 41.8708 22.4561 41.8708 21.3765C41.8708 20.6054 41.261 19.6025 40.5151 19.1463C38.6106 17.9826 39.3861 14.864 41.6695 14.5084C42.7122 14.3459 44.1626 14.8658 44.8925 15.6628C46.5779 17.5033 48.1577 17.5033 49.8449 15.6619C51.4171 13.9442 51.4306 13.8213 50.2982 11.5107C49.3578 9.59261 45.7255 9.06714 44.7927 10.7147C44.4815 11.2651 42.4873 11.5726 40.3028 11.4073L36.3737 11.1099L36.6418 15.0348C36.8955 18.7362 36.7839 18.9597 34.6747 18.9597C32.6374 18.9597 32.4606 18.6743 32.6915 15.7487C32.9985 11.8607 31.5591 9.8041 29.7053 11.483C28.8537 12.256 28.611 13.608 28.9349 15.7847C29.3721 18.7288 29.2444 18.9597 27.1818 18.9597C25.273 18.9597 24.9567 18.5654 24.9567 16.1892C24.9567 14.6654 25.2967 13.4187 25.7119 13.4187C26.9923 13.4187 27.5344 10.6094 26.6151 8.73468C25.5876 6.63648 22.2149 6.38344 20.762 8.29509ZM24.111 10.6482C24.111 11.1561 23.9436 11.5717 23.738 11.5717C23.5325 11.5717 23.13 11.1561 22.8424 10.6482C22.5549 10.1403 22.7232 9.72467 23.2154 9.72467C23.7076 9.72467 24.111 10.1403 24.111 10.6482ZM48.6364 12.9024C48.6364 13.1269 48.2558 13.5664 47.7907 13.8804C47.3255 14.1944 46.945 14.0107 46.945 13.4732C46.945 12.9357 47.3255 12.4952 47.7907 12.4952C48.2558 12.4952 48.6364 12.678 48.6364 12.9024ZM8.88835 17.1127C8.88835 17.6206 8.7209 18.0362 8.5154 18.0362C8.30989 18.0362 7.90734 17.6206 7.6198 17.1127C7.33226 16.6048 7.50055 16.1892 7.99275 16.1892C8.48495 16.1892 8.88835 16.6048 8.88835 17.1127ZM39.3337 30.5035V39.2768H30.4538H21.5739V30.5035V21.7302H30.4538H39.3337V30.5035ZM25.3001 26.7042C25.0523 27.4079 24.9694 29.797 25.1149 32.0144L25.3796 36.0445H30.4538H35.528L35.7817 30.7344L36.0354 25.4242H30.8927C27.29 25.4242 25.6147 25.8075 25.3001 26.7042ZM33.2581 30.7344C33.0332 32.876 32.5926 33.274 30.4538 33.274C28.315 33.274 27.8744 32.876 27.6494 30.7344C27.4008 28.3767 27.6012 28.1947 30.4538 28.1947C33.3063 28.1947 33.5068 28.3767 33.2581 30.7344ZM48.6364 30.0417C47.3712 32.6229 48.9527 35.5828 51.5963 35.5828C52.7854 35.5828 54.0328 34.8052 54.5563 33.7358C55.8215 31.1546 54.24 28.1947 51.5963 28.1947C50.4073 28.1947 49.1599 28.9723 48.6364 30.0417ZM52.442 31.8888C52.7296 32.3967 52.5613 32.8123 52.0691 32.8123C51.5769 32.8123 51.1735 32.3967 51.1735 31.8888C51.1735 31.3808 51.3409 30.9653 51.5465 30.9653C51.752 30.9653 52.1545 31.3808 52.442 31.8888ZM8.88835 37.4298C8.88835 37.9377 8.48495 38.3533 7.99275 38.3533C7.50055 38.3533 7.33226 37.9377 7.6198 37.4298C7.90734 36.9218 8.30989 36.5063 8.5154 36.5063C8.7209 36.5063 8.88835 36.9218 8.88835 37.4298ZM15.1948 47.5246C15.4628 47.9974 15.2945 48.6448 14.8218 48.9643C14.3491 49.2829 13.9626 48.896 13.9626 48.1045C13.9626 46.482 14.47 46.2437 15.1948 47.5246ZM46.945 48.1045C46.945 48.896 46.5585 49.2829 46.0857 48.9643C45.613 48.6448 45.4447 47.9974 45.7128 47.5246C46.4376 46.2437 46.945 46.482 46.945 48.1045Z" fill="white"/>
</svg>
