<svg width="60" height="60" viewBox="0 0 60 60" fill="none" xmlns="http://www.w3.org/2000/svg">
<rect width="60" height="60" rx="5" fill="#F6530F"/>
<path d="M22.6353 33.1343C22.5532 33.7905 22.3721 34.3682 22.0918 34.8672C21.8115 35.3662 21.4561 35.7866 21.0254 36.1284C20.5947 36.4702 20.0991 36.73 19.5386 36.9077C18.9849 37.0786 18.3867 37.1641 17.7441 37.1641C16.9443 37.1641 16.2334 37.0137 15.6113 36.7129C14.9893 36.4121 14.4663 36.0054 14.0425 35.4927C13.6118 34.98 13.2837 34.3853 13.0581 33.7085C12.8325 33.0317 12.7163 32.314 12.7095 31.5552V30.5195C12.7163 29.7471 12.8359 29.0225 13.0684 28.3457C13.3008 27.6621 13.6392 27.064 14.0835 26.5513C14.521 26.0386 15.0542 25.6353 15.6831 25.3413C16.3188 25.0405 17.0435 24.8901 17.8569 24.8901C18.4995 24.8901 19.0942 24.9824 19.6411 25.167C20.1948 25.3516 20.6802 25.6182 21.0972 25.9668C21.5073 26.3154 21.8457 26.7427 22.1123 27.2485C22.3789 27.7544 22.5532 28.3286 22.6353 28.9712H20.7383C20.6699 28.5747 20.564 28.2227 20.4204 27.915C20.2769 27.6074 20.0923 27.3477 19.8667 27.1357C19.6274 26.9102 19.3403 26.7393 19.0054 26.623C18.6772 26.5068 18.2944 26.4487 17.8569 26.4487C17.2759 26.4487 16.7803 26.5649 16.3701 26.7974C15.96 27.0229 15.625 27.3237 15.3652 27.6997C15.1055 28.0825 14.9141 28.52 14.791 29.0122C14.6748 29.4976 14.6133 29.9966 14.6064 30.5093V31.5552C14.6133 32.0542 14.6714 32.5464 14.7808 33.0317C14.8901 33.5171 15.0679 33.9512 15.314 34.334C15.5601 34.7168 15.8813 35.0278 16.2778 35.2671C16.6812 35.4995 17.1699 35.6157 17.7441 35.6157C18.2295 35.6226 18.6533 35.5645 19.0156 35.4414C19.3779 35.3115 19.6821 35.1235 19.9282 34.8774C20.1333 34.6724 20.3008 34.4263 20.4307 34.1392C20.5674 33.8452 20.6699 33.5103 20.7383 33.1343H22.6353ZM31.4741 28.9917H35.6475V30.8784H31.4741V35.5029H29.5771V30.8784H25.4141V28.9917H29.5771V24.6338H31.4741V28.9917ZM44.0864 28.9917H48.2598V30.8784H44.0864V35.5029H42.1895V30.8784H38.0264V28.9917H42.1895V24.6338H44.0864V28.9917Z" fill="white"/>
</svg>
