<svg width="60" height="60" viewBox="0 0 60 60" fill="none" xmlns="http://www.w3.org/2000/svg">
<rect width="60" height="60" rx="5" fill="#F6530F"/>
<path fill-rule="evenodd" clip-rule="evenodd" d="M24.5 8.46512C21.7068 9.22551 23.3803 10.0791 28.548 10.53C37.6704 11.3259 37.8927 13.236 29.7626 20.9592C26.8161 23.7591 24.6168 26.2693 24.8755 26.5386C25.6895 27.3858 32.879 22.8266 36.358 19.2568C40.7512 14.7481 41.4119 12.1013 38.7408 9.70955C37.0377 8.1848 35.9377 7.9345 31.2851 8.01267C28.2832 8.0632 25.2298 8.26692 24.5 8.46512ZM40.2884 22.9561C36.9702 23.5744 34.4994 26.0988 35.0539 28.305C35.2527 29.0962 37.2691 32.1646 39.5351 35.1241C45.6488 43.1094 45.1208 44.2117 35.1654 44.2323C30.2557 44.2433 27.8319 45.3093 30.393 46.3319C31.0788 46.6058 34.6124 46.8704 38.2454 46.9185C48.7986 47.0599 51.4788 43.9835 46.6183 37.3089C38.7492 26.5046 39.3394 27.6433 40.9621 26.4083C41.858 25.7261 44.2879 25.2926 47.2139 25.2926C49.8463 25.2926 52 24.9444 52 24.518C52 23.1188 44.6649 22.1412 40.2884 22.9561ZM18.2414 28.9682C17.4069 29.1522 15.9564 29.4728 15.0172 29.6813C11.457 30.4717 13.5372 31.4532 19.3566 31.7279C27.1097 32.0943 28.6724 33.3111 26.7577 37.4905C24.8694 41.6131 15.9071 47.9987 14.3231 46.35C14.0849 46.1021 15.1401 43.5311 16.668 40.6372C19.6896 34.9156 19.9301 32.5941 17.1877 35.6231C14.8428 38.213 8 49.8283 8 51.218C8 52.8959 11.8113 51.8607 18.9727 48.2372C25.6038 44.8821 30.0288 40.7485 31.8427 36.2161C32.9048 33.5638 32.8919 33.1808 31.6902 31.6371C29.7686 29.168 23.2301 27.8699 18.2414 28.9682Z" fill="white"/>
</svg>
