<svg width="251" height="120" viewBox="0 0 251 120" fill="none" xmlns="http://www.w3.org/2000/svg">
<path fill-rule="evenodd" clip-rule="evenodd" d="M84.5991 1.00331C78.8241 1.46431 72.7491 1.96431 71.0991 2.11431C68.4691 2.35231 69.2891 2.98431 77.7441 7.23531L87.3881 12.0843L92.4831 6.73531C97.6961 1.26231 98.5501 -0.219689 96.3491 0.0253112C95.6621 0.102311 90.3741 0.542308 84.5991 1.00331ZM67.0521 7.13631C67.6761 9.13931 74.4741 30.5713 77.5971 40.3863C79.1731 45.3363 83.4631 58.8363 87.1321 70.3863C90.8001 81.9363 94.0941 91.6753 94.4501 92.0283C94.8071 92.3813 98.6991 92.0663 103.099 91.3283C107.499 90.5903 119.874 88.8323 130.599 87.4223C141.324 86.0123 152.349 84.4223 155.099 83.8883C157.849 83.3553 167.024 82.0093 175.488 80.8993C200.883 77.5673 205.82 76.6533 204.516 75.5263C204.286 75.3273 190.824 68.4123 174.599 60.1583C91.2561 17.7603 67.7681 5.88631 67.2401 5.88631C66.9221 5.88631 66.8371 6.44931 67.0521 7.13631ZM185.099 24.4533C178.499 25.1643 162.561 26.6783 149.682 27.8173C128.148 29.7213 124.51 30.2403 125.682 31.2423C127.669 32.9403 168.127 52.9183 169.112 52.6883C170.427 52.3793 197.586 26.3993 198.959 24.1363C199.421 23.3743 199.206 22.9393 198.408 23.0233C197.688 23.0983 191.699 23.7423 185.099 24.4533ZM34.5441 35.8483C27.0031 37.1993 16.4461 43.1533 11.0951 49.0743C-8.19686 70.4183 -1.49186 103.081 24.7041 115.374C32.4151 118.993 33.5711 119.25 42.1321 119.25C50.6201 119.25 51.8751 118.977 59.0221 115.583C72.5061 109.179 80.1441 99.3803 83.2461 84.5043C84.5361 78.3183 84.5301 76.6283 83.2001 70.1023C82.3701 66.0363 80.7821 60.8373 79.6701 58.5483C72.0031 42.7633 52.0291 32.7163 34.5441 35.8483ZM201.379 35.9163C198.784 36.3543 194.157 37.8573 191.098 39.2583C185.003 42.0483 173.354 52.4303 173.812 54.6643C173.97 55.4353 183.28 60.7443 194.502 66.4623C215.753 77.2903 216.247 77.5713 215.435 78.3843C214.984 78.8343 183.298 83.4703 172.777 84.6243C170.4 84.8853 168.23 85.6853 167.955 86.4023C167.68 87.1183 168.992 91.0083 170.872 95.0453C176.823 107.83 188.723 116.729 202.929 119.017C220.252 121.806 238.593 111.758 246.857 94.9513C249.901 88.7613 250.085 87.7583 250.085 77.3863C250.085 67.0143 249.901 66.0113 246.857 59.8213C240.892 47.6903 228.789 38.2853 216.165 35.9733C209.591 34.7693 208.223 34.7633 201.379 35.9163Z" fill="white"/>
</svg>
