<svg width="213" height="87" viewBox="0 0 213 87" fill="none" xmlns="http://www.w3.org/2000/svg">
<path fill-rule="evenodd" clip-rule="evenodd" d="M117.041 2.39252C114.644 4.16152 112.374 4.89252 109.281 4.89252C106.877 4.89252 103.991 5.38452 102.868 5.98552C101.391 6.77552 100.524 6.77552 99.734 5.98552C98.135 4.38652 92.486 4.65152 91.041 6.39252C90.356 7.21752 88.164 7.89952 86.169 7.90752C81.695 7.92652 80.454 8.67652 79.128 12.1625C77.929 15.3165 79.13 19.4775 81.83 21.5295C83.107 22.4995 88.966 22.8365 104.923 22.8605C124.52 22.8895 126.572 22.7275 129.509 20.9125C136.116 16.8285 136.193 6.00352 129.643 1.95552C125.205 -0.787476 121.161 -0.647479 117.041 2.39252ZM43.041 10.9915C40.312 12.0525 35.05 17.4935 35.026 19.2785C34.984 22.3275 33.505 22.8185 29.018 21.2725C23.488 19.3675 17.704 20.1035 11.657 23.4835C-3.24502 31.8125 -4.00802 52.6565 10.226 62.5215C15.665 66.2905 20.116 66.7165 54.541 66.7645C91.151 66.8155 97.197 66.1975 101.42 61.9745C104.218 59.1775 104.541 58.2355 104.541 52.8825C104.541 47.7195 104.185 46.5815 101.911 44.4725C98.141 40.9765 91.84 39.5525 83.291 40.2635L76.041 40.8665V37.9565C76.041 33.6495 71.701 29.0215 66.95 28.2615C63.128 27.6505 63.041 27.5435 63.041 23.4585C63.041 13.8295 52.553 7.29252 43.041 10.9915ZM158.541 31.7965C152.851 34.4435 150.743 37.4435 150.23 43.6225C149.809 48.7045 149.687 48.8925 146.817 48.8925C142.762 48.8925 137.041 54.5805 137.041 58.6135V61.5335L128.666 61.0945C119.135 60.5945 114.456 61.7575 110.938 65.5025C108.967 67.6005 108.541 69.1035 108.541 73.9635C108.541 79.1725 108.878 80.1865 111.383 82.5095C112.947 83.9585 115.872 85.5275 117.883 85.9945C123.167 87.2225 193.739 87.1045 198.219 85.8595C203.798 84.3105 210.608 76.8655 212.088 70.6985C214.67 59.9325 211.12 50.5445 202.202 44.5555C196.742 40.8875 187.877 39.8295 182.999 42.2635C181.203 43.1595 179.613 43.8925 179.465 43.8925C179.317 43.8925 178.697 42.4295 178.086 40.6425C176.525 36.0725 173.951 33.2995 169.571 31.4695C164.788 29.4715 163.457 29.5105 158.541 31.7965ZM80.792 56.1425C80.479 57.0815 74.812 57.4595 57.981 57.6625C35.349 57.9345 32.41 57.7225 33.537 55.8995C34.524 54.3025 81.324 54.5435 80.792 56.1425ZM188.041 75.3925C188.041 76.6855 184.597 76.8925 163.041 76.8925C141.485 76.8925 138.041 76.6855 138.041 75.3925C138.041 74.0995 141.485 73.8925 163.041 73.8925C184.597 73.8925 188.041 74.0995 188.041 75.3925Z" fill="white"/>
</svg>
