<svg width="218" height="175" viewBox="0 0 218 175" fill="none" xmlns="http://www.w3.org/2000/svg">
<path fill-rule="evenodd" clip-rule="evenodd" d="M47.8381 0.759213C47.8381 1.18721 48.8511 2.38822 50.0881 3.42922C52.1941 5.19922 80.3561 31.4642 87.6371 38.4482L90.9371 41.6132L71.8111 58.5472C61.2911 67.8612 52.2911 75.6242 51.8101 75.7982C51.3291 75.9732 42.0661 68.3232 31.2261 58.7982C2.54612 33.5982 0.39312 31.8172 0.00711997 32.9742C-0.18488 33.5512 3.53012 43.8972 8.26412 55.9642L16.8711 77.9062L15.4211 85.1932C9.03512 117.293 5.79212 135.269 6.29712 135.774C7.05412 136.53 6.73112 136.88 30.8201 109.188C41.9651 96.3782 51.4251 86.0282 51.8441 86.1882C52.2621 86.3492 61.1811 95.7062 71.6631 106.981L90.7211 127.481L67.7791 150.489C55.1621 163.143 44.8381 173.831 44.8381 174.239C44.8381 174.647 65.2311 174.981 90.1561 174.981H135.474L142.458 167.731C164.166 145.198 217.832 87.8472 217.797 87.2192C217.775 86.8132 215.051 83.5562 211.744 79.9812C208.438 76.4062 190.793 56.9522 172.535 36.7502L139.338 0.0202149L93.5881 0.000214445C68.4251 -0.00978555 47.8381 0.331213 47.8381 0.759213ZM134.838 1.77621C134.838 2.55721 95.7741 37.7192 93.1721 39.2802C92.2481 39.8352 85.7181 34.3492 71.8391 21.3582C60.8381 11.0612 51.8381 2.26421 51.8381 1.80921C51.8381 1.35321 70.5131 0.981213 93.3381 0.981213C116.163 0.981213 134.838 1.33921 134.838 1.77621ZM157.037 22.2312C167.154 33.3692 175.806 43.0942 176.263 43.8442C176.861 44.8232 171.003 51.3032 155.466 66.8532L133.837 88.4982L154.338 108.981C165.613 120.246 174.838 129.858 174.838 130.342C174.838 131.05 156.712 150.652 138.367 169.783L135.201 173.085L99.2701 134.322C79.5071 113.003 60.9011 92.9362 57.9221 89.7292C54.9431 86.5222 51.9731 84.0292 51.3211 84.1902C50.6691 84.3502 41.6991 94.1562 31.3861 105.981C21.0741 117.806 11.6101 128.543 10.3551 129.841L8.07312 132.2L8.59512 129.341C8.88212 127.768 11.2621 115.456 13.8831 101.981L18.6501 77.4812L10.7611 57.5472C6.42312 46.5832 3.04712 37.4392 3.26012 37.2252C3.47312 37.0122 14.0671 45.9822 26.8011 57.1592C39.5341 68.3362 50.4901 77.6032 51.1461 77.7522C52.3971 78.0362 55.0961 75.7062 106.206 30.2312C123.668 14.6932 138.11 1.98121 138.299 1.98121C138.488 1.98121 146.92 11.0932 157.037 22.2312ZM197.765 67.0642L216.053 87.1472L213.196 90.2952C209.021 94.8942 195.588 109.104 185.34 119.761L176.417 129.042L156.627 109.271C145.743 98.3972 136.838 89.0502 136.838 88.4992C136.838 87.1422 177.039 46.9812 178.398 46.9812C178.991 46.9812 187.706 56.0182 197.765 67.0642ZM106.827 144.981C114.728 153.506 123.912 163.294 127.236 166.731L133.28 172.981L90.3091 172.95L47.3381 172.92L69.8381 151.048C82.2131 139.019 92.3661 129.245 92.3991 129.329C92.4331 129.413 98.9261 136.456 106.827 144.981Z" fill="white"/>
</svg>
