<svg width="60" height="60" viewBox="0 0 60 60" fill="none" xmlns="http://www.w3.org/2000/svg">
<rect width="60" height="60" rx="5" fill="#F6530F"/>
<path fill-rule="evenodd" clip-rule="evenodd" d="M11.5627 8.06411L8.00301 10.1058L8.00001 26.8006C7.99851 35.9831 8.18827 43.4954 8.42154 43.4954C8.6548 43.4954 9.49861 43.1457 10.2967 42.7188C11.6648 41.9857 11.7473 42.2326 11.7473 47.0707C11.7473 50.0593 12.123 52.5751 12.6473 53.0996C13.3014 53.7539 18.9312 54 33.2737 54H53V33.7411C53 13.9827 52.9632 13.4822 51.4999 13.4822C50.2631 13.4822 49.9998 12.9818 49.9998 10.631C49.9998 9.0628 49.5948 7.37456 49.0997 6.87934C48.4524 6.23181 43.5494 5.98495 31.6611 6.00071L15.1225 6.02171L11.5627 8.06411ZM39.4991 14.9416C39.4991 16.1504 38.8871 16.4408 35.9364 16.6299C32.6736 16.8392 32.3534 17.0328 32.1366 18.9221C31.9116 20.8737 32.0639 20.9855 34.9493 20.9855C37.702 20.9855 37.999 21.1679 37.999 22.8613C37.999 24.5496 37.699 24.7372 34.9988 24.7372H31.9986V28.4888C31.9986 32.1572 31.9483 32.2405 29.7485 32.2405H27.4983V22.8613V13.4822H33.4987C38.9426 13.4822 39.4991 13.6173 39.4991 14.9416ZM28.0481 46.2333C28.2304 49.4725 27.1713 50.6513 24.8731 49.7696C23.1758 49.1176 23.5223 47.8248 25.2482 48.3725C26.3125 48.7102 26.7483 48.5076 26.7483 47.6725C26.7483 47.0257 26.3267 46.4697 25.8107 46.4374C25.0606 46.3902 25.0606 46.3024 25.8107 46C27.3565 45.3757 26.8675 44.0394 25.2482 44.4633C24.4231 44.6787 23.7481 44.6059 23.7481 44.3005C23.7481 43.2553 24.8116 42.682 26.3425 42.9011C27.5681 43.0767 27.9086 43.7415 28.0481 46.2333ZM34.0417 43.9989C34.2278 44.5579 33.7732 44.7312 32.7914 44.4746C31.9431 44.2525 31.2486 44.4243 31.2486 44.8565C31.2486 45.2887 32.0046 45.7501 32.9287 45.8814C35.1526 46.1996 35.5021 48.4258 33.4957 49.4995C32.2941 50.1433 31.6386 50.1328 30.8255 49.4583C29.5017 48.359 29.3989 43.7648 30.686 43.2335C32.1059 42.6475 33.714 43.0144 34.0417 43.9989ZM40.8499 46.2138C41.0862 49.4493 39.9746 50.6715 37.6172 49.7666C34.6643 48.6336 35.8966 42.4472 38.9876 42.8869C40.3219 43.0775 40.6662 43.6912 40.8499 46.2138ZM37.5205 45.3712C36.9834 46.7698 37.69 48.7477 38.7258 48.7477C39.1511 48.7477 39.4991 47.7348 39.4991 46.4967C39.4991 44.1407 38.2623 43.4369 37.5205 45.3712ZM31.2486 47.6222C31.2486 48.2412 31.7548 48.7477 32.3736 48.7477C32.9924 48.7477 33.4987 48.2412 33.4987 47.6222C33.4987 47.0032 32.9924 46.4967 32.3736 46.4967C31.7548 46.4967 31.2486 47.0032 31.2486 47.6222Z" fill="white"/>
</svg>
